<svg width="60" height="60" viewBox="0 0 60 60" fill="none" xmlns="http://www.w3.org/2000/svg">
<path d="M50.9999 30.125C51.008 33.0947 50.2884 36.0243 48.8999 38.675C47.2536 41.8514 44.7227 44.5232 41.5907 46.3909C38.4586 48.2586 34.8492 49.2486 31.1666 49.25C28.0869 49.2577 25.0489 48.5639 22.3 47.225L9 51.5L13.4333 38.675C12.0448 36.0243 11.3253 33.0947 11.3333 30.125C11.3348 26.574 12.3614 23.0935 14.2983 20.0733C16.2352 17.0531 19.0059 14.6126 22.3 13.0251C25.0489 11.6862 28.0869 10.9923 31.1666 11.0001H32.3333C37.1968 11.2588 41.7904 13.2383 45.2346 16.5595C48.6788 19.8807 50.7316 24.3103 50.9999 29V30.125Z" stroke="black" stroke-width="3" stroke-linecap="round" stroke-linejoin="round"/>
<circle cx="21.75" cy="29.75" r="2.25" fill="black"/>
<circle cx="30.75" cy="29.75" r="2.25" fill="black"/>
<circle cx="39.75" cy="29.75" r="2.25" fill="black"/>
</svg>
