<svg width="32" height="32" viewBox="0 0 32 32" fill="none" xmlns="http://www.w3.org/2000/svg">
<path d="M16.0003 23.9998C13.8448 23.9998 12.0003 23.2665 10.467 21.7998C8.93366 20.3332 8.11144 18.5332 8.00033 16.3998L10.8003 17.2332C11.0892 18.4332 11.7114 19.4165 12.667 20.1832C13.6225 20.9498 14.7337 21.3332 16.0003 21.3332C17.467 21.3332 18.7225 20.8109 19.767 19.7665C20.8114 18.7221 21.3337 17.4665 21.3337 15.9998C21.3337 14.7332 20.9503 13.6221 20.1837 12.6665C19.417 11.7109 18.4337 11.0887 17.2337 10.7998L16.4003 7.99984C18.5337 8.11095 20.3337 8.93317 21.8003 10.4665C23.267 11.9998 24.0003 13.8443 24.0003 15.9998C24.0003 18.2221 23.2225 20.1109 21.667 21.6665C20.1114 23.2221 18.2225 23.9998 16.0003 23.9998ZM10.8003 28.2832C9.1781 27.5832 7.76699 26.6332 6.56699 25.4332C5.36699 24.2332 4.41699 22.8221 3.71699 21.1998C3.01699 19.5776 2.66699 17.8443 2.66699 15.9998V15.3998C2.66699 15.1998 2.68921 14.9998 2.73366 14.7998L5.33366 15.5998V15.9998C5.33366 18.9776 6.36699 21.4998 8.43366 23.5665C10.5003 25.6332 13.0225 26.6665 16.0003 26.6665C18.9781 26.6665 21.5003 25.6332 23.567 23.5665C25.6337 21.4998 26.667 18.9776 26.667 15.9998C26.667 13.0221 25.6337 10.4998 23.567 8.43317C21.5003 6.3665 18.9781 5.33317 16.0003 5.33317H15.6003L14.8003 2.73317C15.0003 2.68873 15.2003 2.6665 15.4003 2.6665H16.0003C17.8448 2.6665 19.5781 3.0165 21.2003 3.7165C22.8225 4.4165 24.2337 5.3665 25.4337 6.5665C26.6337 7.7665 27.5837 9.17761 28.2837 10.7998C28.9837 12.4221 29.3337 14.1554 29.3337 15.9998C29.3337 17.8443 28.9837 19.5776 28.2837 21.1998C27.5837 22.8221 26.6337 24.2332 25.4337 25.4332C24.2337 26.6332 22.8225 27.5832 21.2003 28.2832C19.5781 28.9832 17.8448 29.3332 16.0003 29.3332C14.1559 29.3332 12.4225 28.9832 10.8003 28.2832ZM14.0337 16.6665L8.33366 10.9665L6.66699 15.9998L2.66699 2.6665L16.0003 6.6665L10.967 8.33317L16.667 14.0332L14.0337 16.6665Z" fill="#1C1B1F"/>
</svg>
