<svg width="60" height="60" viewBox="0 0 60 60" fill="none" xmlns="http://www.w3.org/2000/svg">
<path d="M12.1 40.7C10.7116 37.9511 9.99202 34.9131 10.0001 31.8334V30.6667C10.2684 25.8032 12.3212 21.2096 15.7654 17.7654C19.2096 14.3212 23.8032 12.2684 28.6667 12.0001H29.8333C32.913 11.992 35.9511 12.7116 38.7 14.1001C41.9941 15.7464 44.7647 18.2773 46.7016 21.4093C48.6386 24.5414 50.3334 29.9167 49.6666 31.8334C48.9999 33.75 30.2499 51.75 27.9999 51.75C25.7498 51.75 22.5414 50.6386 19.4093 48.7017C16.2773 46.7647 13.7464 43.9941 12.1 40.7Z" stroke="black" stroke-width="3" stroke-linecap="round" stroke-linejoin="round"/>
<path d="M28.75 51.7501C28 43.7501 31.15 28.3501 49.75 30.7501" stroke="black" stroke-width="3.75"/>
<rect x="20.5" y="22.5" width="4.5" height="4.5" fill="black"/>
<rect x="34" y="22.5" width="4.5" height="4.5" fill="black"/>
<path d="M20.5 31.5C20.5 36.75 23.5 40.5 30.25 39.75" stroke="black" stroke-width="3"/>
</svg>
